<svg xmlns="http://www.w3.org/2000/svg" xmlns:xlink="http://www.w3.org/1999/xlink" width="500" zoomAndPan="magnify" viewBox="0 0 375 374.999991" height="500" preserveAspectRatio="xMidYMid meet" version="1.0"><defs><clipPath id="27284cf749"><path d="M 21.132812 9.363281 L 353 9.363281 L 353 370.863281 L 21.132812 370.863281 Z M 21.132812 9.363281 " clip-rule="nonzero"/></clipPath></defs><path fill="#38b6ff" d="M 170.238281 144.96875 L 169.261719 144.96875 L 169.171875 145.011719 L 124.324219 189.855469 L 124.105469 189.765625 L 124.105469 99.992188 L 124.234375 99.863281 L 169.707031 99.863281 C 216.796875 99.863281 257.632812 135.066406 261.722656 181.976562 C 266.390625 235.449219 224.355469 280.292969 171.863281 280.292969 L 124.234375 280.292969 L 124.105469 280.164062 L 124.105469 235.246094 L 124.132812 235.144531 L 168.980469 190.300781 L 169.210938 190.390625 L 169.210938 235.1875 L 171.863281 235.1875 C 197.019531 235.1875 217.363281 214.589844 216.96875 189.351562 C 216.578125 164.445312 195.144531 144.96875 170.238281 144.96875 " fill-opacity="1" fill-rule="nonzero"/><g clip-path="url(#27284cf749)"><path fill="#38b6ff" d="M 171.863281 9.648438 C 272.496094 9.648438 353.914062 92.054688 352.273438 193.058594 C 350.679688 292.0625 267.769531 370.519531 168.757812 370.519531 L 21.273438 370.519531 L 21.144531 370.378906 L 21.144531 235.246094 L 21.183594 235.144531 L 66.03125 190.300781 L 66.25 190.390625 L 66.25 325.269531 L 66.390625 325.410156 L 169.0625 325.410156 C 240.425781 325.410156 301.714844 271.265625 306.832031 200.09375 C 312.535156 120.828125 249.90625 54.746094 171.863281 54.746094 L 66.390625 54.746094 L 66.25 54.886719 L 66.25 144.910156 L 66.210938 145.011719 L 21.375 189.855469 L 21.144531 189.765625 L 21.144531 9.777344 L 21.273438 9.648438 L 171.863281 9.648438 " fill-opacity="1" fill-rule="nonzero"/></g><path fill="#38b6ff" d="M 66.484375 234.964844 L 111.046875 190.078125 L 66.390625 190.078125 L 66.25 190.207031 L 66.25 234.875 L 66.484375 234.964844 " fill-opacity="1" fill-rule="nonzero"/></svg>